<svg xmlns="http://www.w3.org/2000/svg" viewBox="0 0 122.9 122.9"><defs><style>.cls-1,.cls-2{fill:none;stroke-miterlimit:10;}.cls-1{stroke:#c33;stroke-width:2.9px;}.cls-2{stroke:#c66;stroke-width:1.94px;}</style></defs><title>icon_1</title><g id="Layer_2" data-name="Layer 2"><g id="Layer_1-2" data-name="Layer 1"><circle class="cls-1" cx="61.45" cy="61.45" r="60"/><path class="cls-2" d="M61.45,26A35.43,35.43,0,1,0,96.88,61.45,35.47,35.47,0,0,0,61.45,26Zm.08,10a9.24,9.24,0,1,1-9.24,9.24A9.24,9.24,0,0,1,61.53,36ZM45.2,70.79a9.24,9.24,0,1,1,9.24-9.24A9.24,9.24,0,0,1,45.2,70.79ZM61.53,87.12a9.24,9.24,0,1,1,9.24-9.24A9.24,9.24,0,0,1,61.53,87.12ZM77.86,70.79a9.24,9.24,0,1,1,9.24-9.24A9.24,9.24,0,0,1,77.86,70.79Z"/><path class="cls-2" d="M61.45,20.32a41.13,41.13,0,1,0,41.13,41.13A41.13,41.13,0,0,0,61.45,20.32Zm0,77.86A36.73,36.73,0,1,1,98.18,61.45,36.77,36.77,0,0,1,61.45,98.18Z"/></g></g></svg>