<svg xmlns="http://www.w3.org/2000/svg" viewBox="0 0 85 85"><defs><style>.cls-1{fill:#c66;}</style></defs><title>icon_4</title><g id="Layer_2" data-name="Layer 2"><g id="Layer_1-2" data-name="Layer 1"><path class="cls-1" d="M25.52,10.9s-10.68,4-17,18.9l34.8-6.58Z"/><path class="cls-1" d="M8,31.93S3.29,42.31,9.45,57.3L29.31,28Z"/><path class="cls-1" d="M10.78,58.78s4,10.68,18.9,17L23.11,41Z"/><path class="cls-1" d="M31.81,76.29S42.19,81,57.18,74.85L27.86,55Z"/><path class="cls-1" d="M59.24,74s10.68-4,17-18.91l-34.8,6.57Z"/><path class="cls-1" d="M75.3,27.56,55.45,56.89l21.3-4S81.46,42.56,75.3,27.56Z"/><path class="cls-1" d="M74,26.09s-4-10.68-18.91-17l6.57,34.8Z"/><path class="cls-1" d="M52.93,8.58S42.56,3.87,27.56,10L56.89,29.88Z"/><path class="cls-1" d="M42.5,0A42.5,42.5,0,1,0,85,42.5,42.5,42.5,0,0,0,42.5,0Zm0,81.71A39.21,39.21,0,1,1,81.71,42.5,39.26,39.26,0,0,1,42.5,81.71Z"/></g></g></svg>