<svg xmlns="http://www.w3.org/2000/svg" viewBox="0 0 76.64 85"><defs><style>.cls-1{fill:#c66;}</style></defs><title>icon_5</title><g id="Layer_2" data-name="Layer 2"><g id="Layer_1-2" data-name="Layer 1"><path class="cls-1" d="M74.35,28.76A32.71,32.71,0,0,1,56.93,19.7,32.63,32.63,0,0,1,47.88,2.29c6.53-4.09,16-2.64,22.56,3.91S78.44,22.23,74.35,28.76Zm-4.51,4.51a38.11,38.11,0,0,1-16.77-9.71,38,38,0,0,1-9.7-16.77c-4.09,6.53-2.64,16,3.91,22.55S63.31,37.35,69.85,33.27Zm-25.94,29c-8.15,0-14,5.09-19.11,9.58-5.68,5-10.6,9.27-17.84,7C5.52,77.87,5.48,77,5.46,76.71c-.1-2,2.27-4.59,3.44-5.56a2.39,2.39,0,0,0,.34-.42,5.42,5.42,0,0,0,5.64-1.25L52,38.94A26.69,26.69,0,0,1,37.71,24.66L7.17,61.76a5.37,5.37,0,0,0-1.38,5,2.92,2.92,0,0,0-.35.19C4.85,67.42-.24,71.75,0,77c.09,1.83.89,4.48,4.2,6.7l.65.32a18.72,18.72,0,0,0,6,1c7.26,0,12.67-4.73,17.56-9s9.42-8.24,15.52-8.24C58,67.76,68.85,82.82,69,83a2.73,2.73,0,0,0,4.45-3.15C72.91,79.1,60.81,62.3,43.91,62.3Z"/></g></g></svg>