<svg xmlns="http://www.w3.org/2000/svg" viewBox="0 0 96.2 85"><defs><style>.cls-1{fill:#c66;}</style></defs><title>icon_6</title><g id="Layer_2" data-name="Layer 2"><g id="Layer_1-2" data-name="Layer 1"><path id="_Compound_Path_" data-name="&lt;Compound Path&gt;" class="cls-1" d="M37.49,44.16a2,2,0,0,1,1.83-3.61,18.25,18.25,0,0,0,16.5,0,2,2,0,0,1,1.83,3.6,22.31,22.31,0,0,1-20.17,0ZM59,55.05H9.77V3.95H85.3V34.43a2.07,2.07,0,0,0,4.13.06V2a2,2,0,0,0-2-2H7.85a2,2,0,0,0-2,2V57.16a2,2,0,0,0,2,2H59A2.07,2.07,0,0,0,59,55.05ZM6.44,67.83H42.94a2,2,0,0,0,1.94,1.5h5.43a2,2,0,0,0,1.94-1.5h6.67a2.07,2.07,0,1,0,0-4.13H6.49A6.84,6.84,0,0,0,.24,68.39a6.5,6.5,0,0,0,6.24,8.27H58.93a2.07,2.07,0,1,0,0-4.13H6.48a2.35,2.35,0,1,1,0-4.7ZM71.07,34.46c-.94-.68-3.55-1.4-7-1.4-4,0-5.44.92-7,1.89a17.6,17.6,0,0,1-18.9,0c-1.48-.92-3-1.86-7-1.86-3.49,0-6.09.73-7,1.4a2,2,0,0,1-2.35-3.29c1.72-1.23,4.8-2,8.36-2.14a17.49,17.49,0,0,1,34.92,0c3.56.13,6.64.91,8.36,2.14a2,2,0,0,1-2.35,3.29ZM61,29.2a13.45,13.45,0,0,0-26.84,0,14.06,14.06,0,0,1,6.08,2.29,13.63,13.63,0,0,0,14.64,0A14.19,14.19,0,0,1,61,29.2ZM96.2,57.28V70a14.84,14.84,0,1,1-29.69.18V57.28A14.81,14.81,0,0,1,81.33,42.46h.06A14.81,14.81,0,0,1,96.2,57.28Zm-3.95-.1a10.8,10.8,0,0,0-10.8-10.77h-.16A10.64,10.64,0,0,0,70.65,57v13a10.8,10.8,0,0,0,21.61,0V57.18Zm-13-4v5.08a2.07,2.07,0,1,0,4.13,0V53.16a2.07,2.07,0,1,0-4.13,0Z"/></g></g></svg>