<svg xmlns="http://www.w3.org/2000/svg" viewBox="0 0 123 123"><defs><style>.cls-1{fill:#c66;}.cls-2,.cls-4{fill:none;}.cls-2,.cls-3{stroke:#c66;}.cls-2,.cls-3,.cls-4{stroke-miterlimit:10;}.cls-2{stroke-width:2.13px;}.cls-3{fill:#fff;stroke-width:0.75px;}.cls-4{stroke:#c0272d;stroke-width:3px;}</style></defs><title>icon_2</title><g id="Layer_2" data-name="Layer 2"><g id="Layer_1-2" data-name="Layer 1"><rect class="cls-1" x="55.85" y="79.9" width="10.86" height="3.12"/><rect class="cls-1" x="35.16" y="45.07" width="52.58" height="31.72"/><path class="cls-2" d="M61.5,19A42.5,42.5,0,1,0,104,61.5,42.5,42.5,0,0,0,61.5,19ZM90.68,78.14a1.59,1.59,0,0,1-1.59,1.59H69.65v4.13h6.69a1.55,1.55,0,0,1,1.55,1.55v.85a1.55,1.55,0,0,1-1.55,1.55H46.89a1.55,1.55,0,0,1-1.55-1.55v-.85a1.55,1.55,0,0,1,1.55-1.55h6V79.73H33.81a1.59,1.59,0,0,1-1.59-1.59V43.72a1.59,1.59,0,0,1,1.59-1.59H89.09a1.59,1.59,0,0,1,1.59,1.59Z"/><rect class="cls-3" x="35.2" y="45.12" width="52.49" height="31.63"/><path class="cls-1" d="M49.81,51.8c-2.88,2.93-5.74,5.9-8.73,8.72L44,61.71v-.07l-2.87,1.19,8.8,8.8a1.68,1.68,0,0,0,2.38-2.38l-8.8-8.8a1.7,1.7,0,0,0-2.87,1.19v.07a1.7,1.7,0,0,0,2.87,1.19c3-2.82,5.85-5.79,8.73-8.72,1.52-1.55-.86-3.93-2.38-2.38Z"/><path class="cls-1" d="M70.71,54.18c2.88,2.93,5.74,5.9,8.73,8.72a1.7,1.7,0,0,0,2.87-1.19v-.07a1.7,1.7,0,0,0-2.87-1.19l-8.8,8.8A1.68,1.68,0,0,0,73,71.63l8.8-8.8-2.87-1.19v.07l2.87-1.19c-3-2.82-5.85-5.79-8.73-8.72-1.52-1.55-3.9.83-2.38,2.38Z"/><path class="cls-1" d="M57.95,71.42,68.13,53.77a1.68,1.68,0,0,0-2.91-1.7L55,69.72a1.68,1.68,0,0,0,2.91,1.7Z"/><circle class="cls-4" cx="61.5" cy="61.5" r="60"/></g></g></svg>