<svg xmlns="http://www.w3.org/2000/svg" viewBox="0 0 123 123"><defs><style>.cls-1,.cls-12,.cls-4,.cls-5,.cls-8{fill:none;}.cls-1{stroke:#c0272d;stroke-width:3px;}.cls-1,.cls-10,.cls-11,.cls-12,.cls-2,.cls-3,.cls-4,.cls-5,.cls-7,.cls-8,.cls-9{stroke-miterlimit:10;}.cls-11,.cls-2,.cls-3,.cls-9{fill:#fff;}.cls-2{stroke:#fff;stroke-width:0.71px;}.cls-10,.cls-11,.cls-12,.cls-3,.cls-4,.cls-5,.cls-7,.cls-8,.cls-9{stroke:#c66;}.cls-3{stroke-width:0.76px;}.cls-4{stroke-width:3.69px;}.cls-5{stroke-width:2.56px;}.cls-6,.cls-7{fill:#c66;}.cls-7{stroke-width:1.71px;}.cls-8{stroke-width:1.02px;}.cls-10,.cls-9{stroke-width:0.85px;}.cls-11{stroke-width:0.72px;}.cls-12{stroke-width:3.42px;}</style></defs><title>icon_3</title><g id="Layer_2" data-name="Layer 2"><g id="Layer_1-2" data-name="Layer 1"><circle class="cls-1" cx="61.5" cy="61.5" r="60"/><path class="cls-2" d="M64.46,68.78a11.51,11.51,0,0,0-1.84-6.26c-1-.35-2.06-.7-3.14-1l-.88-.26-.27-.07L57.69,61l-.28-.07-.71-.15-.18,0-.89-.15-.19,0-.7-.09-.26,0-.69-.07-.2,0q-.9-.07-1.79-.08h-1.1q-.91,0-1.81.09h-.06l-.83.08H47.9q-1.36.15-2.69.39h0L44.3,61a11.56,11.56,0,0,0,1.1,16.56,46.83,46.83,0,0,0,10.51.62,41.62,41.62,0,0,0,4.22-.42A11.54,11.54,0,0,0,64.46,68.78Z"/><path d="M55.74,70.38a2.67,2.67,0,1,1,0-5.34h.18a4.81,4.81,0,1,0,1.7,4.55A2.66,2.66,0,0,1,55.74,70.38Z"/><path class="cls-3" d="M66.13,69.39a12.34,12.34,0,0,0-2-6.71c-1.09-.37-2.21-.75-3.37-1.11l-.94-.28-.29-.08L58.88,61l-.3-.07-.76-.16-.19,0-.95-.16-.21,0-.75-.1-.28,0-.74-.07-.22,0q-1-.07-1.92-.09H51.4q-1,0-1.94.09h-.06l-.89.08h-.12q-1.46.16-2.88.42h0l-.94.19A12.4,12.4,0,0,0,45.7,78.84,50.23,50.23,0,0,0,57,79.51a44.64,44.64,0,0,0,4.53-.45A12.38,12.38,0,0,0,66.13,69.39Z"/><path d="M55.74,70.38a2.67,2.67,0,1,1,0-5.34h.18a4.81,4.81,0,1,0,1.7,4.55A2.66,2.66,0,0,1,55.74,70.38Z"/><path class="cls-4" d="M59.47,61.68C44.57,56.17,28.77,68.39,26.77,70c3.71,3.13,11.85,12.13,29.15,11.17,12-.67,21.67-7.38,27.82-12.12C76.71,69.6,69.41,65.35,59.47,61.68Z"/><path class="cls-5" d="M61.5,19A42.5,42.5,0,1,0,104,61.5C104,42.51,79.59,19,61.5,19ZM54.13,81.46A36.41,36.41,0,0,1,36,76.78c-4.56-2.45-9.24-7.49-9.6-7.93-.13.09,1.71-1.71,1.71-1.71A38,38,0,0,1,49.38,54.88a17.55,17.55,0,0,1,2.75-.45c5.77-.81,4.1-1.19,17.66,1.71,4.4.94,7.83,3.2,16.9,3.73,0,0,.38,1.88,4.28,3.33l.37.12,1.17.38,1.11.28-.08.06.19.06-2.07,1.44C91,66,66.59,81.46,54.13,81.46Z"/><path class="cls-6" d="M55.74,70.38a2.67,2.67,0,1,1,0-5.34h.18a4.81,4.81,0,1,0,1.7,4.55A2.66,2.66,0,0,1,55.74,70.38Z"/><path class="cls-7" d="M24.77,62.37S39,48.85,56.8,49.2s35.94,11,35.94,11,3.87,1,2.85,0c-10-9.61-21.71-14.95-40.22-14.95C40.43,45.29,24.77,62.37,24.77,62.37Z"/><polygon class="cls-8" points="68.61 54.91 89.81 36.25 92.29 39.49 70.05 56.35 68.61 54.91"/><polygon class="cls-9" points="92.11 39.31 72.19 54.34 70.94 52.72 89.6 36.44 92.11 39.31"/><rect class="cls-10" x="72.87" y="50.16" width="1.43" height="2.87" transform="translate(-16.18 56.05) rotate(-37.88)"/><path class="cls-11" d="M72,53.3c.83,1.07.48,2.25-1.61,3.89s-7.06,4.1-7.9,3,2.78-5.28,4.88-6.91S71.19,52.23,72,53.3Z"/><polygon class="cls-10" points="73.25 53.67 72.38 54.38 70.59 52.22 71.49 51.41 73.25 53.67"/><path class="cls-12" d="M59.47,61.48c-14.91-4.73-30.7,5.75-32.71,7.14C30.48,71.31,38.62,79,55.91,78.21c12-.57,21.67-6.33,27.82-10.4C76.71,68.28,69.41,64.63,59.47,61.48Z"/><path class="cls-12" d="M61.5,19A42.5,42.5,0,1,0,104,61.5C104,42.51,79.59,19,61.5,19ZM54.13,81.46A36.41,36.41,0,0,1,36,76.78c-4.56-2.45-9.24-7.49-9.6-7.93-.13.09,1.71-1.71,1.71-1.71A38,38,0,0,1,49.38,54.88a17.55,17.55,0,0,1,2.75-.45c5.77-.81,4.1-1.19,17.66,1.71,4.4.94,7.83,3.2,16.9,3.73,0,0,.38,1.88,4.28,3.33l.37.12,1.17.38,1.11.28-.08.06.19.06-2.07,1.44C91,66,66.59,81.46,54.13,81.46Z"/><path class="cls-5" d="M59.47,61.48c-14.91-4.73-30.7,5.75-32.71,7.14C30.48,71.31,38.62,79,55.91,78.21c12-.57,21.67-6.33,27.82-10.4C76.71,68.28,69.41,64.63,59.47,61.48Z"/><path class="cls-5" d="M61.5,19A42.5,42.5,0,1,0,104,61.5C104,42.51,79.59,19,61.5,19ZM54.13,81.46A36.41,36.41,0,0,1,36,76.78c-4.56-2.45-9.24-7.49-9.6-7.93-.13.09,1.71-1.71,1.71-1.71A38,38,0,0,1,49.38,54.88a17.55,17.55,0,0,1,2.75-.45c5.77-.81,4.1-1.19,17.66,1.71,4.4.94,7.83,3.2,16.9,3.73,0,0,.38,1.88,4.28,3.33l.37.12,1.17.38,1.11.28-.08.06.19.06-2.07,1.44C91,66,66.59,81.46,54.13,81.46Z"/></g></g></svg>