<svg xmlns="http://www.w3.org/2000/svg" viewBox="0 0 84.56 85"><defs><style>.cls-1{fill:#c66;}</style></defs><title>icon_7</title><g id="Layer_2" data-name="Layer 2"><g id="Layer_1-2" data-name="Layer 1"><path class="cls-1" d="M38.19,85A38.21,38.21,0,0,0,71.91,28.87a6.73,6.73,0,0,1-.94.06l-.55,0-4.86-.37L62.06,32A28.11,28.11,0,1,1,53,23l3.16-3.16-.43-5.57a7.34,7.34,0,0,1,0-1.33A38.19,38.19,0,1,0,38.19,85Z"/><path class="cls-1" d="M38.19,36.95l.75,0L46,29.92l.15-.15a18.82,18.82,0,1,0,9.08,9.09l-.15.15L48,46.06q0,.37,0,.75a9.86,9.86,0,1,1-9.86-9.87Z"/><path class="cls-1" d="M77.54,12.71l2.26-2.26a2.64,2.64,0,0,0,0-3.73L78.24,5.13a2.63,2.63,0,0,0-3.73,0L71.92,7.73,71.38.82A.89.89,0,0,0,69.87.26L59.66,10.46A4.46,4.46,0,0,0,58.37,14l0,.4.49,6.39-3.69,3.69-6.64,6.64-.15.15L42,37.66l-2.85,2.85a2.2,2.2,0,0,0-.64,1.4l-.18,2.24a2.23,2.23,0,0,0,2.22,2.41h.12L43,46.44a2.19,2.19,0,0,0,1.46-.65L47.29,43l6.43-6.43.15-.15,6.64-6.64,4-4,5.83.45.26,0h.34a4.48,4.48,0,0,0,3.16-1.3l10.2-10.2a.89.89,0,0,0-.56-1.52Z"/></g></g></svg>